<svg xmlns="http://www.w3.org/2000/svg" viewBox="18 26 70 62" width="70" height="62" role="img" aria-label="TrailGauge">
  <g><circle cx="76" cy="36" r="6.5" fill="#f0b545" stroke="#1c1a12" stroke-width="1.0"/><path d="M26 74 L50 44 L60 57 L68 48 L82 74 Z" fill="none" stroke="#1c1a12" stroke-width="3.5" stroke-linejoin="round"/><path d="M26 74 L50 44 L60 57 L68 48 L82 74 Z" fill="#46d39a"/><path d="M50 44 L57 54 L43 54 Z" fill="#f1ebdc"/><path d="M36 80 L36 83" stroke="#0a0c0a" stroke-width="2.3" stroke-linecap="round"/><path d="M48 80 L48 83" stroke="#0a0c0a" stroke-width="2.3" stroke-linecap="round"/><path d="M60 80 L60 83" stroke="#0a0c0a" stroke-width="2.3" stroke-linecap="round"/><path d="M72 80 L72 83" stroke="#0a0c0a" stroke-width="2.3" stroke-linecap="round"/><path d="M28 80 L82 80" stroke="#0a0c0a" stroke-width="2.3" stroke-linecap="round"/><path d="M36 80 L36 83" stroke="#f0b545" stroke-width="1.5" stroke-linecap="round"/><path d="M48 80 L48 83" stroke="#f0b545" stroke-width="1.5" stroke-linecap="round"/><path d="M60 80 L60 83" stroke="#f0b545" stroke-width="1.5" stroke-linecap="round"/><path d="M72 80 L72 83" stroke="#f0b545" stroke-width="1.5" stroke-linecap="round"/><path d="M28 80 L82 80" stroke="#f0b545" stroke-width="1.5" stroke-linecap="round"/></g>
</svg>
