<svg xmlns="http://www.w3.org/2000/svg" viewBox="0 0 120 120" width="120" height="120">
      <rect width="120" height="120" fill="#10151c"/>
      <g transform="translate(60,60) scale(0.8) translate(-60,-60)"><g transform="translate(0,5)"><path d="M13.06 87.10 A54.2 54.2 0 1 1 106.94 87.10" fill="none" stroke="#0a0c0a" stroke-width="3.8" stroke-linecap="round"/><path d="M14.10 86.50 A53 53 0 1 1 105.90 86.50" fill="none" stroke="#e6c886" stroke-width="3.0" stroke-linecap="round"/><path d="M18.43 84.00 A48 48 0 1 1 101.57 84.00" fill="none" stroke="#e6c886" stroke-width="1" stroke-linecap="round" stroke-dasharray="1 3" opacity="0.55"/></g>
      <g transform="translate(60,62) scale(1.18) translate(-60,-60)"><g transform="translate(0,1)"><circle cx="76" cy="36" r="6.5" fill="#f0b545" stroke="#1c1a12" stroke-width="1.0"/><path d="M26 74 L50 44 L60 57 L68 48 L82 74 Z" fill="#46d39a"/><path d="M50 44 L57 54 L43 54 Z" fill="#f1ebdc"/><path d="M36 80 L36 83" stroke="#0a0c0a" stroke-width="2.3" stroke-linecap="round"/><path d="M48 80 L48 83" stroke="#0a0c0a" stroke-width="2.3" stroke-linecap="round"/><path d="M60 80 L60 83" stroke="#0a0c0a" stroke-width="2.3" stroke-linecap="round"/><path d="M72 80 L72 83" stroke="#0a0c0a" stroke-width="2.3" stroke-linecap="round"/><path d="M28 80 L82 80" stroke="#0a0c0a" stroke-width="2.3" stroke-linecap="round"/><path d="M36 80 L36 83" stroke="#f0b545" stroke-width="1.5" stroke-linecap="round"/><path d="M48 80 L48 83" stroke="#f0b545" stroke-width="1.5" stroke-linecap="round"/><path d="M60 80 L60 83" stroke="#f0b545" stroke-width="1.5" stroke-linecap="round"/><path d="M72 80 L72 83" stroke="#f0b545" stroke-width="1.5" stroke-linecap="round"/><path d="M28 80 L82 80" stroke="#f0b545" stroke-width="1.5" stroke-linecap="round"/></g></g></g></svg>